<svg version="1.1" id="Layer_1" xmlns="http://www.w3.org/2000/svg" xmlns:xlink="http://www.w3.org/1999/xlink" x="0px" y="0px"
	 width="100%" viewBox="220 260 580 500" enable-background="new 0 0 1024 1024" xml:space="preserve">
<path fill="#000000" opacity="1.000000" stroke="none" 
	d="
M233.656830,547.999878 
	C233.658386,471.019501 233.653885,394.539124 233.665680,318.058746 
	C233.669373,294.027893 249.783615,277.878174 273.783173,277.872253 
	C321.937469,277.860382 370.091888,277.940521 418.246002,277.849030 
	C431.117310,277.824585 441.049286,282.654205 448.035400,293.678131 
	C454.722412,304.230072 461.926727,314.454926 468.578857,325.027893 
	C471.178558,329.159821 474.203369,330.759552 479.141083,330.750183 
	C555.454590,330.605225 631.772583,331.092651 708.079590,330.372101 
	C731.058594,330.155121 749.866699,347.356049 749.313293,371.816132 
	C749.103088,381.104980 749.310364,381.109680 757.888550,382.355896 
	C782.009888,385.860199 795.952576,404.970184 791.986145,429.225494 
	C782.840759,485.151093 773.583191,541.058472 764.501343,596.994324 
	C758.295227,635.218201 752.279297,673.473022 746.235413,711.723022 
	C742.787415,733.544128 725.500977,748.040161 702.357361,748.063477 
	C637.374084,748.129089 572.390747,748.089111 507.407440,748.094116 
	C430.427246,748.099976 353.447021,748.137878 276.466827,748.099060 
	C254.261200,748.087830 238.318466,735.149658 234.175003,713.912720 
	C233.670486,711.326904 233.685699,708.613831 233.684235,705.959595 
	C233.655334,653.473022 233.659561,600.986511 233.656830,547.999878 
M609.290405,632.315002 
	C611.418457,635.064087 614.218628,635.756470 617.640076,635.728455 
	C634.467224,635.590698 651.296692,635.594910 668.123962,635.726074 
	C671.920410,635.755676 675.268860,634.924622 678.607422,633.165649 
	C697.910950,622.994629 717.256042,612.902039 736.636475,602.878479 
	C739.067993,601.620850 740.408508,600.142883 740.830933,597.284607 
	C742.458008,586.274231 744.131226,575.258362 746.299500,564.346375 
	C747.160767,560.011963 745.882812,558.034241 742.088623,556.283081 
	C729.691711,550.561157 717.490906,544.414368 705.093506,538.693542 
	C701.331482,536.957520 699.474792,534.432556 698.924133,530.456665 
	C697.944153,523.380310 696.539551,516.357361 695.736572,509.264069 
	C695.239746,504.876129 693.756104,502.898468 688.918823,503.009216 
	C675.263123,503.321777 661.596130,503.163208 647.933716,503.124603 
	C646.192627,503.119690 644.245728,503.712860 642.214478,501.519073 
	C646.461975,488.282166 650.823853,474.688507 655.483398,460.167419 
	C647.039856,464.323883 639.590820,468.000977 632.131104,471.656219 
	C630.088135,472.657257 629.565491,474.386536 629.226929,476.507996 
	C626.949524,490.783051 624.495789,505.029938 622.209900,519.303711 
	C621.624084,522.962036 620.148132,525.567322 616.853271,527.703552 
	C595.470764,541.566650 574.235046,555.656128 552.963806,569.690613 
	C551.771423,570.477295 550.140686,570.887878 550.005981,572.049744 
	C569.796875,592.168335 589.288391,611.982605 609.290405,632.315002 
M298.686981,547.029236 
	C292.964844,571.469238 287.232971,595.907043 281.533722,620.352356 
	C280.875580,623.175232 279.648834,625.776001 284.065765,627.404785 
	C307.490540,636.043030 330.840485,644.892578 354.087036,653.998962 
	C358.643890,655.783936 360.732208,654.939941 363.111633,650.780579 
	C373.033905,633.435852 383.381744,616.335083 393.425934,599.059021 
	C395.388092,595.684204 397.802368,593.660645 401.654877,592.561523 
	C424.689117,585.989990 447.633850,579.105042 470.655396,572.487976 
	C474.504364,571.381653 476.323517,569.564270 475.668701,565.437927 
	C475.148285,562.158691 474.838959,558.830750 474.682953,555.512817 
	C474.492584,551.463867 473.077576,548.318909 469.837219,545.625366 
	C449.344574,528.590698 428.859100,511.542542 408.663788,494.158997 
	C404.488892,490.565369 402.090912,491.136200 398.374664,494.502747 
	C383.689636,507.805969 368.666718,520.735657 353.939392,533.993042 
	C350.133820,537.418762 346.572845,539.080139 341.412262,537.039673 
	C336.954712,535.277222 332.132935,534.448181 327.494202,533.128845 
	C319.712769,530.915710 311.948853,528.640869 303.687195,526.250122 
	C302.007233,533.359558 300.484711,539.802673 298.686981,547.029236 
M621.096558,711.378967 
	C625.252014,714.713196 629.418213,718.034058 633.558167,721.387390 
	C635.543762,722.995667 637.621704,724.115662 640.327026,724.104858 
	C661.975830,724.018433 683.625061,724.000793 705.274109,723.985657 
	C709.476685,723.982666 713.067505,722.442383 716.232239,719.802979 
	C720.333374,716.382568 720.274536,715.088074 715.839539,712.045532 
	C703.896179,703.851746 692.020691,695.553772 679.928284,687.585388 
	C675.966248,684.974548 673.915222,681.972534 673.519714,677.153809 
	C672.881897,669.385193 671.438477,661.686157 670.549744,653.933228 
	C670.052368,649.594543 668.340881,647.692017 663.573120,647.775391 
	C647.257751,648.060913 630.932007,647.739197 614.615662,647.993042 
	C609.552856,648.071838 605.890259,646.512390 602.315918,642.905945 
	C582.508484,622.920532 562.437256,603.196777 542.567078,583.272949 
	C539.845093,580.543579 538.050171,579.979370 534.786499,582.802673 
	C522.325928,593.581909 509.644806,604.112732 496.841919,614.484375 
	C494.006958,616.781006 493.478821,618.781677 494.600861,622.089417 
	C498.927032,634.842957 503.133484,647.640137 507.134491,660.498779 
	C508.136963,663.720642 510.068451,664.999939 513.076294,665.605591 
	C529.689697,668.950317 546.215759,672.804810 562.920227,675.595825 
	C574.726257,677.568420 584.983276,681.596069 593.972900,689.788147 
	C602.319763,697.394531 611.642761,703.929565 621.096558,711.378967 
M533.091370,483.610901 
	C531.526184,486.128204 531.280579,488.678192 531.819946,491.694183 
	C534.478271,506.558990 536.781738,521.486877 539.353882,536.367676 
	C540.725464,544.302429 541.441895,552.382263 543.754761,560.364746 
	C544.877563,560.000122 545.569275,559.925659 546.086487,559.585815 
	C566.536011,546.150940 586.960876,532.678467 607.418396,519.255737 
	C609.563721,517.848145 610.369019,515.983887 610.760010,513.497192 
	C612.950928,499.561127 615.509888,485.680542 617.529114,471.721069 
	C618.306946,466.343719 620.699951,463.332031 625.716125,461.113892 
	C636.515869,456.338135 646.966309,450.777191 657.622559,445.668671 
	C660.085876,444.487793 661.460571,442.777466 662.286194,440.236572 
	C665.626648,429.956726 669.104248,419.721436 672.486023,409.454865 
	C672.783142,408.552795 673.157837,407.542206 672.419861,406.438934 
	C669.872437,405.309784 667.034607,405.437378 664.230042,405.436157 
	C636.111145,405.423950 607.991516,405.528107 579.873962,405.334167 
	C575.166870,405.301697 572.775208,407.034515 570.677612,411.143219 
	C558.419067,435.155457 545.872009,459.020355 533.091370,483.610901 
M705.896606,364.397797 
	C703.369019,363.374420 700.722473,363.302826 698.039978,363.303253 
	C579.718811,363.322632 461.397614,363.326660 343.076416,363.326294 
	C337.191010,363.326263 331.469360,364.295898 325.942566,366.277649 
	C303.371582,374.370880 292.367340,391.762177 287.419708,414.106750 
	C280.231659,446.569763 272.905029,479.002075 265.693085,511.459839 
	C262.808960,524.440002 258.436096,537.353271 257.636292,550.473511 
	C256.293915,572.493469 257.269012,594.654724 257.269012,616.756531 
	C259.126404,611.393066 260.417358,605.939453 261.705933,600.485229 
	C276.344482,538.522644 291.005585,476.565369 305.602112,414.592834 
	C308.605957,401.839478 315.508789,392.224640 327.342743,386.302399 
	C334.552765,382.694122 342.260223,381.905426 350.169739,381.907318 
	C470.157410,381.936249 590.145081,381.944916 710.132751,381.910583 
	C712.506775,381.909912 715.124878,382.724731 717.209961,380.851807 
	C716.502075,372.333893 714.026794,368.571594 705.896606,364.397797 
M752.124268,405.435883 
	C731.987000,404.959442 711.849548,406.506561 691.712402,405.431641 
	C688.705078,405.271149 686.381409,405.633972 685.219849,409.248077 
	C676.925659,435.055634 668.436218,460.800476 660.005798,486.564209 
	C659.646240,487.662842 659.082520,488.744263 659.932983,489.978363 
	C661.486511,491.117889 663.382202,490.656708 665.157227,490.665253 
	C676.480652,490.719788 687.812744,490.953674 699.124268,490.586151 
	C703.872498,490.431915 705.581360,492.305206 706.172668,496.593658 
	C707.420105,505.640442 709.074707,514.633850 710.183044,523.695557 
	C710.562805,526.799744 711.905640,528.441223 714.542603,529.687683 
	C725.227173,534.737915 735.862000,539.893616 746.517578,545.005371 
	C747.272522,545.367554 748.046509,545.700500 749.376892,544.734802 
	C751.279602,533.279175 753.299744,521.376221 755.227417,509.458405 
	C759.786804,481.270142 764.109863,453.041748 768.940796,424.900360 
	C770.602234,415.221863 764.359192,405.567535 752.124268,405.435883 
M379.962799,646.379456 
	C377.357544,650.949829 374.752289,655.520264 372.184204,660.025452 
	C374.060822,662.056274 376.040863,662.536926 377.861572,663.273865 
	C394.982819,670.203918 412.085266,677.181763 429.257843,683.982483 
	C432.804199,685.386841 434.342621,687.324402 434.476685,691.326782 
	C434.776703,700.284119 435.682861,709.222473 436.412079,718.162903 
	C436.571533,720.117676 436.563568,722.301086 438.478668,723.535706 
	C441.840698,725.703125 453.393097,723.567932 455.965240,720.351807 
	C466.884308,706.698975 477.291840,692.593811 488.881256,679.537048 
	C495.567841,672.003906 496.771667,665.560364 493.097076,656.047913 
	C484.772736,634.498535 477.797119,612.432800 477.647614,588.889404 
	C477.612488,583.361694 477.115356,583.127686 471.757629,584.694092 
	C450.691193,590.853271 429.648438,597.094299 408.558014,603.169861 
	C405.599335,604.022217 403.703491,605.566895 402.190582,608.203613 
	C394.983032,620.764832 387.624054,633.239014 379.962799,646.379456 
M469.230652,529.255798 
	C473.080200,532.439392 476.740936,535.896545 480.836639,538.723572 
	C484.373871,541.165161 485.778290,544.401917 486.141449,548.349243 
	C487.238037,560.268127 487.988495,572.228027 489.460693,584.099243 
	C490.192963,590.004028 489.295929,596.249573 491.878632,602.234985 
	C493.010925,601.585022 493.639832,601.334351 494.135834,600.923340 
	C506.189423,590.935303 518.207275,580.903931 530.293579,570.955750 
	C532.143616,569.432983 532.217957,567.758545 531.858032,565.631165 
	C528.256348,544.345947 524.556091,523.074951 521.261963,501.741516 
	C520.081482,494.096832 517.036804,486.575134 521.638977,478.545319 
	C529.747864,464.397034 536.996277,449.754211 544.552368,435.290955 
	C549.546265,425.732086 554.448303,416.125244 559.694275,405.952606 
	C547.247864,405.282318 535.485291,405.096527 523.710083,405.873291 
	C521.611450,406.011688 520.015625,407.097015 518.412354,408.389069 
	C504.282715,419.776337 490.148590,431.159210 475.899475,442.395874 
	C473.490967,444.295166 472.131195,446.407257 471.685425,449.379944 
	C470.306061,458.577789 468.725250,467.745911 467.391113,476.949951 
	C465.563293,489.559906 465.237305,502.680786 453.712555,511.502777 
	C451.321259,513.333252 452.698669,515.292603 454.571869,516.862488 
	C459.294373,520.820374 463.992432,524.807434 469.230652,529.255798 
M419.513824,405.871521 
	C409.645599,406.297821 399.729004,404.402740 389.301666,406.887665 
	C394.531158,412.810516 400.152893,418.171967 405.838013,423.465302 
	C408.434723,425.883057 409.510132,428.672394 409.464935,432.302216 
	C409.290955,446.280762 409.405945,460.262726 409.359619,474.243256 
	C409.351105,476.815155 409.550629,479.118561 411.772522,480.956665 
	C420.874847,488.486847 429.886627,496.126434 438.963562,503.687469 
	C439.931976,504.494202 441.259766,505.987427 442.411499,504.752930 
	C446.185425,500.707947 451.713348,497.978912 452.715118,491.757721 
	C454.718628,479.315643 457.211243,466.921448 458.496918,454.404266 
	C459.553162,444.121368 462.152771,435.434326 471.830444,430.016968 
	C475.270020,428.091522 478.145752,425.152466 481.258636,422.650970 
	C487.926270,417.292877 494.580780,411.918457 502.185669,405.789093 
	C474.024963,404.826691 447.264313,406.055054 419.513824,405.871521 
M525.297791,680.368469 
	C520.737915,679.442810 516.163513,678.582153 511.622711,677.570740 
	C508.029022,676.770325 505.413239,677.570679 503.007904,680.697998 
	C494.379608,691.916382 485.458710,702.909607 476.666718,714.002380 
	C474.237000,717.067993 471.870819,720.183960 469.236969,723.584839 
	C518.549133,723.584839 567.003052,723.584839 616.734192,723.584839 
	C603.462524,713.027954 591.196472,703.338196 579.020996,693.535950 
	C576.205750,691.269470 573.139160,689.969910 569.621887,689.278442 
	C555.113037,686.426147 540.630371,683.440491 525.297791,680.368469 
M270.858490,723.793884 
	C276.560516,724.567444 282.789185,726.548889 287.589996,722.358704 
	C307.541809,704.944885 327.193542,687.186951 346.911804,669.506653 
	C348.074158,668.464417 349.716522,667.670776 349.967560,665.775146 
	C349.502106,665.459534 349.130829,665.092468 348.684448,664.921692 
	C326.143951,656.298828 303.583130,647.728882 281.064270,639.049988 
	C277.220551,637.568481 276.873291,640.106689 276.284180,642.625244 
	C271.286469,663.991882 266.237579,685.346802 261.321228,706.732117 
	C259.299500,715.526428 261.802765,720.115784 270.858490,723.793884 
M380.106659,494.583618 
	C384.752106,490.533600 389.340332,486.415253 394.065460,482.460388 
	C396.698944,480.256165 397.771576,477.713959 397.719727,474.218109 
	C397.539398,462.057159 397.549225,449.890503 397.716370,437.729156 
	C397.763794,434.279022 396.697052,431.688782 394.291473,429.304321 
	C387.428558,422.501709 380.652557,415.609985 373.924713,408.673431 
	C371.952148,406.639740 369.810516,405.724182 366.915741,405.552032 
	C360.231750,405.154480 353.595551,405.834229 346.938263,405.933105 
	C337.645599,406.071136 332.266083,409.791168 329.416809,418.633118 
	C327.535126,424.472504 326.623444,430.619171 324.874115,436.508453 
	C323.823639,440.044922 324.757141,442.008942 327.841095,443.862274 
	C338.547791,450.296661 348.950897,457.251617 359.802399,463.423187 
	C365.330627,466.567230 367.045502,470.845581 367.450012,476.754547 
	C368.022461,485.116150 369.317566,493.428284 370.364075,502.270996 
	C374.548889,500.326874 376.784668,497.331635 380.106659,494.583618 
M346.635895,686.145508 
	C332.687500,698.561157 318.739105,710.976746 304.316864,723.814148 
	C310.012634,724.933716 314.654449,724.074219 319.291260,724.076233 
	C352.457062,724.091003 385.622894,724.054810 418.788696,724.008240 
	C424.567657,724.000122 425.092194,723.385559 424.578583,717.647461 
	C424.015015,711.350891 423.229370,705.067505 422.900116,698.759644 
	C422.738892,695.671997 421.657593,693.955383 418.751434,692.805420 
	C401.872955,686.126526 385.020874,679.377380 368.241882,672.453430 
	C364.945343,671.093079 362.614746,671.696777 360.168152,673.976868 
	C355.903687,677.951172 351.496613,681.772461 346.635895,686.145508 
M681.658875,646.997070 
	C682.563293,654.076660 683.604675,661.142273 684.327515,668.240295 
	C684.876404,673.629578 686.580444,677.815613 691.687622,680.779968 
	C698.288391,684.611145 704.379578,689.318848 710.700012,693.634521 
	C714.630310,696.318115 718.578918,698.974792 723.610962,702.382935 
	C728.408691,673.261475 733.021851,645.259827 737.644348,617.201904 
	C735.291443,616.833557 733.935059,617.995789 732.525574,618.727661 
	C717.761047,626.393250 703.020020,634.104553 688.317810,641.888855 
	C686.015015,643.108154 683.267700,643.770630 681.658875,646.997070 
M350.424774,520.891907 
	C351.668213,519.785278 352.788422,518.482544 354.178436,517.609131 
	C358.204559,515.079468 359.333771,511.593781 358.721863,506.980682 
	C357.477753,497.601349 356.544250,488.180511 355.513458,478.773376 
	C355.192169,475.841187 353.483490,474.026855 351.063110,472.568970 
	C344.791046,468.791229 338.643036,464.803925 332.318817,461.117676 
	C328.648834,458.978546 325.398743,456.035492 320.561096,454.493988 
	C315.832977,474.469269 311.184540,494.107910 306.590820,513.515442 
	C308.257080,515.106873 309.926361,515.363159 311.502716,515.812073 
	C320.774292,518.452576 330.142853,520.798889 339.283783,523.831909 
	C343.698578,525.296814 346.968475,524.805847 350.424774,520.891907 
z"/>
</svg>